HIERARCHY
ROOT Hips
{
	OFFSET 0.000000 0.000000 0.000000
	CHANNELS 6 Xposition Yposition Zposition Xrotation Yrotation Zrotation
	JOINT LeftUpLeg_virtual
	{
		OFFSET 0.000000 0.000000 0.000000
		CHANNELS 3 Xrotation Yrotation Zrotation
		JOINT LeftUpLeg
		{
			OFFSET 10.205400 -3.823500 0.155100
			CHANNELS 3 Xrotation Yrotation Zrotation
			JOINT LeftLeg
			{
				OFFSET 0.708757 -12.982077 0.567790
				CHANNELS 3 Xrotation Yrotation Zrotation
				JOINT LeftFoot
				{
					OFFSET -0.708756 -10.717838 -2.184338
					CHANNELS 3 Xrotation Yrotation Zrotation
					JOINT LeftToeBase
					{
						OFFSET 0.108149 -7.191104 7.560241
						CHANNELS 3 Xrotation Yrotation Zrotation
						JOINT LeftToe_End
						{
							OFFSET 0.070230 0.081724 4.490308
							CHANNELS 3 Xrotation Yrotation Zrotation
							End Site
							{
								OFFSET 0 0 0
							}
						}
					}
				}
			}
		}
	}
	JOINT RightUpLeg_virtual
	{
		OFFSET 0.000000 0.000000 0.000000
		CHANNELS 3 Xrotation Yrotation Zrotation
		JOINT RightUpLeg
		{
			OFFSET -10.205400 -3.823500 0.005500
			CHANNELS 3 Xrotation Yrotation Zrotation
			JOINT RightLeg
			{
				OFFSET -0.708756 -12.982134 0.610632
				CHANNELS 3 Xrotation Yrotation Zrotation
				JOINT RightFoot
				{
					OFFSET 0.708754 -10.717769 -1.945823
					CHANNELS 3 Xrotation Yrotation Zrotation
					JOINT RightToeBase
					{
						OFFSET -0.108140 -7.191069 7.372968
						CHANNELS 3 Xrotation Yrotation Zrotation
						JOINT RightToe_End
						{
							OFFSET -0.070227 0.081735 4.479403
							CHANNELS 3 Xrotation Yrotation Zrotation
							End Site
							{
								OFFSET 0 0 0
							}
						}
					}
				}
			}
		}
	}
	JOINT Spine_virtual
	{
		OFFSET 0.000000 0.000000 0.000000
		CHANNELS 3 Xrotation Yrotation Zrotation
		JOINT Spine
		{
			OFFSET 0.000000 6.876099 0.125700
			CHANNELS 3 Xrotation Yrotation Zrotation
			JOINT Spine1
			{
				OFFSET 0.000000 5.730043 0.104720
				CHANNELS 3 Xrotation Yrotation Zrotation
				JOINT Spine1_split
				{
					OFFSET 0.000000 5.730043 0.104720
					CHANNELS 3 Xrotation Yrotation Zrotation
					JOINT Spine2
					{
						OFFSET 0.000000 5.730043 0.104720
						CHANNELS 3 Xrotation Yrotation Zrotation
						JOINT Neck_virtual
						{
							OFFSET 0.000000 0.000000 0.000000
							CHANNELS 3 Xrotation Yrotation Zrotation
							JOINT Neck
							{
								OFFSET 0.000000 10.314075 0.188496
								CHANNELS 3 Xrotation Yrotation Zrotation
								JOINT Head
								{
									OFFSET 0.000000 7.643700 -2.377400
									CHANNELS 3 Xrotation Yrotation Zrotation
									JOINT HeadTop_End
									{
										OFFSET 0.000000 43.788605 -13.619600
										CHANNELS 3 Xrotation Yrotation Zrotation
										End Site
										{
											OFFSET 0 0 0
										}
									}
								}
							}
						}
						JOINT LeftShoulder_virtual
						{
							OFFSET 0.000000 0.000000 0.000000
							CHANNELS 3 Xrotation Yrotation Zrotation
							JOINT LeftShoulder
							{
								OFFSET 2.196100 4.412489 0.087492
								CHANNELS 3 Xrotation Yrotation Zrotation
								JOINT LeftShoulder_split
								{
									OFFSET 2.196100 4.412489 0.087492
									CHANNELS 3 Xrotation Yrotation Zrotation
									JOINT LeftArm
									{
										OFFSET 8.771219 -2.981674 -0.026999
										CHANNELS 3 Xrotation Yrotation Zrotation
										JOINT LeftForeArm
										{
											OFFSET 8.512804 0.000000 -0.000000
											CHANNELS 3 Xrotation Yrotation Zrotation
											JOINT LeftHand
											{
												OFFSET 18.484802 0.000000 -0.000000
												CHANNELS 3 Xrotation Yrotation Zrotation
												End Site
												{
													OFFSET 0 0 0
												}
											}
										}
									}
								}
							}
						}
						JOINT RightShoulder_virtual
						{
							OFFSET 0.000000 0.000000 0.000000
							CHANNELS 3 Xrotation Yrotation Zrotation
							JOINT RightShoulder
							{
								OFFSET -2.196100 4.412496 0.070690
								CHANNELS 3 Xrotation Yrotation Zrotation
								JOINT RightShoulder_split
								{
									OFFSET -2.196100 4.412496 0.070690
									CHANNELS 3 Xrotation Yrotation Zrotation
									JOINT RightArm
									{
										OFFSET -8.771282 -2.981682 -0.094208
										CHANNELS 3 Xrotation Yrotation Zrotation
										JOINT RightForeArm
										{
											OFFSET -8.494598 0.000000 0.000000
											CHANNELS 3 Xrotation Yrotation Zrotation
											JOINT RightHand
											{
												OFFSET -18.483803 0.000000 0.000001
												CHANNELS 3 Xrotation Yrotation Zrotation
												End Site
												{
													OFFSET 0 0 0
												}
											}
										}
									}
								}
							}
						}
					}
				}
			}
		}
	}
}
MOTION
Frames: 5
Frame Time: 0.03333333
-2.492693 30.542931 -0.771029 0.000000 0.000000 0.000000 51.399663 -70.854081 52.232113 -58.377818 0.818872 0.003287 47.994206 -10.409436 1.585182 -6.735438 -0.224889 -2.923693 -0.379278 1.642684 -1.202599 0.000000 0.000000 0.000000 51.399663 -70.854081 52.232113 -40.596216 -3.559081 -22.455422 55.891571 -0.563467 -1.599198 -27.057861 -6.993699 18.131917 -1.799635 0.000010 0.000001 0.000000 0.000000 0.000000 51.399663 -70.854081 52.232113 7.774330 3.308454 4.655798 12.707907 6.406385 6.655390 0.000000 0.000000 0.000000 0.000000 0.000000 0.000000 12.728351 6.436529 6.586129 3.385403 -0.460105 2.258528 8.874437 1.648277 -4.487669 0.000000 0.000000 0.000000 12.728351 6.436529 6.586129 0.608287 -2.105578 -11.581391 0.000000 0.000000 0.000000 -46.459169 -29.078817 -92.550709 -0.000005 -20.859010 -0.000012 0.000000 0.000000 0.000000 12.728351 6.436529 6.586129 -0.784354 15.466945 22.252644 0.000000 0.000000 0.000000 -56.162863 25.008341 77.070946 0.000023 0.015604 -0.000001 0.000000 0.000000 0.000000 
-2.492370 30.553116 -0.739847 0.000000 0.000000 0.000000 51.248487 -70.814390 52.060129 -58.324536 0.782553 -0.062791 47.941193 -10.281818 1.562186 -6.703612 -0.230579 -2.876628 -0.366024 1.568039 -1.147988 0.000000 0.000000 0.000000 51.248487 -70.814390 52.060129 -40.466316 -3.602540 -22.544190 55.704018 -0.497683 -1.538271 -26.978465 -7.048316 18.151296 -1.783628 0.000019 0.000006 0.000000 0.000000 0.000000 51.248487 -70.814390 52.060129 7.777055 3.289777 4.629840 12.734697 6.382457 6.620565 0.000000 0.000000 0.000000 0.000000 0.000000 0.000000 12.753682 6.413126 6.553436 3.323828 -0.449312 2.118603 8.568392 2.100353 -4.603539 0.000000 0.000000 0.000000 12.753682 6.413126 6.553436 0.607735 -2.121769 -11.502035 0.000000 0.000000 0.000000 -46.348776 -29.026193 -92.588713 0.000001 -20.910906 0.000015 0.000000 0.000000 0.000000 12.753682 6.413126 6.553436 -0.771675 15.442479 22.219744 0.000000 0.000000 0.000000 -54.175561 25.033941 76.267771 -0.000001 3.450914 -0.000011 0.000000 0.000000 0.000000 
-2.489526 30.560848 -0.707142 0.000000 0.000000 0.000000 51.126715 -70.760234 51.923822 -58.317193 0.820845 -0.150676 47.885821 -10.283181 1.572700 -6.646171 -0.241957 -2.803021 -0.307533 1.694433 -1.263341 0.000000 0.000000 0.000000 51.126715 -70.760234 51.923822 -40.360336 -3.602894 -22.644060 55.540622 -0.446932 -1.457630 -26.900977 -7.108988 18.179781 -1.765936 0.000021 0.000002 0.000000 0.000000 0.000000 51.126715 -70.760234 51.923822 7.779036 3.282112 4.599713 12.761463 6.360631 6.585519 0.000000 0.000000 0.000000 0.000000 0.000000 0.000000 12.782051 6.390461 6.516429 3.261843 -0.433256 1.978215 8.264418 2.555796 -4.677160 0.000000 0.000000 0.000000 12.782051 6.390461 6.516429 0.622102 -2.152988 -11.444317 0.000000 0.000000 0.000000 -46.248994 -29.013537 -92.576780 0.000012 -20.995855 0.000021 0.000000 0.000000 0.000000 12.782051 6.390461 6.516429 -0.770509 15.402022 22.186655 0.000000 0.000000 0.000000 -52.826927 25.199976 75.725372 0.000008 5.532889 -0.000004 0.000000 0.000000 0.000000 
-2.483194 30.566669 -0.671391 0.000000 0.000000 0.000000 51.001354 -70.692328 51.785053 -58.322541 0.786140 -0.249309 47.836770 -10.173773 1.539912 -6.602968 -0.251849 -2.743066 -0.285314 1.699276 -1.273439 0.000000 0.000000 0.000000 51.001354 -70.692328 51.785053 -40.280498 -3.615576 -22.758180 55.388190 -0.389144 -1.396416 -26.820259 -7.172198 18.222876 -1.754112 0.000013 0.000001 0.000000 0.000000 0.000000 51.001354 -70.692328 51.785053 7.778160 3.269651 4.571199 12.781139 6.342117 6.541854 0.000000 0.000000 0.000000 0.000000 0.000000 0.000000 12.800689 6.371299 6.475302 3.199643 -0.415969 1.840741 7.937519 3.014467 -4.718363 0.000000 0.000000 0.000000 12.800689 6.371299 6.475302 0.617843 -2.182627 -11.388750 0.000000 0.000000 0.000000 -46.114937 -29.034291 -92.541748 0.000002 -21.111746 0.000005 0.000000 0.000000 0.000000 12.800689 6.371299 6.475302 -0.767992 15.352011 22.171656 0.000000 0.000000 0.000000 -51.911545 25.479609 75.377114 0.000006 6.967206 0.000011 0.000000 0.000000 0.000000 
-2.472963 30.569695 -0.631701 0.000000 0.000000 0.000000 50.844707 -70.613241 51.609688 -58.350204 0.778196 -0.367040 47.796294 -10.094976 1.515787 -6.551190 -0.276553 -2.629469 -0.250852 1.735969 -1.311881 0.000000 0.000000 0.000000 50.844707 -70.613241 51.609688 -40.200550 -3.623041 -22.883640 55.243673 -0.342626 -1.329878 -26.739070 -7.238323 18.282762 -1.740320 0.000042 -0.000005 0.000000 0.000000 0.000000 50.844707 -70.613241 51.609688 7.779842 3.257748 4.544010 12.809823 6.318506 6.496767 0.000000 0.000000 0.000000 0.000000 0.000000 0.000000 12.828886 6.349019 6.429876 3.137324 -0.400748 1.701664 7.596241 3.482414 -4.739416 0.000000 0.000000 0.000000 12.828886 6.349019 6.429876 0.616122 -2.212810 -11.335448 0.000000 0.000000 0.000000 -45.984484 -29.111069 -92.484054 -0.000001 -21.276666 0.000021 0.000000 0.000000 0.000000 12.828886 6.349019 6.429876 -0.757178 15.311370 22.171904 0.000000 0.000000 0.000000 -51.116579 25.809130 75.054579 0.000009 8.195422 -0.000006 0.000000 0.000000 0.000000 
